<?xml version="1.0" standalone="no"?>
<!DOCTYPE svg PUBLIC "-//W3C//DTD SVG 20010904//EN"
 "http://www.w3.org/TR/2001/REC-SVG-20010904/DTD/svg10.dtd">
<svg version="1.0" xmlns="http://www.w3.org/2000/svg"
 width="400.000000pt" height="250.000000pt" viewBox="0 0 400.000000 250.000000"
 preserveAspectRatio="xMidYMid meet">
<metadata>
Created by potrace 1.16, written by Peter Selinger 2001-2019
</metadata>
<g transform="translate(0.000000,250.000000) scale(0.100000,-0.100000)"
fill="#000000" stroke="none">
<path d="M2677 1893 c-3 -15 -1 -35 5 -43 7 -12 8 -10 5 6 -3 12 -1 27 3 33 4
7 7 -2 8 -19 1 -39 -24 -70 -58 -70 -14 0 -34 -7 -44 -15 -11 -8 -15 -15 -9
-15 6 0 20 -3 30 -6 13 -4 14 -3 5 4 -11 7 -11 10 1 15 20 7 39 -16 31 -36 -4
-11 -17 -16 -38 -15 -18 1 -38 -2 -44 -6 -7 -4 -12 -2 -12 3 0 15 -77 14 -83
-1 -3 -7 -6 -1 -6 14 -1 21 5 29 22 33 13 4 27 5 33 4 5 -1 18 -1 29 0 l20 2
-20 11 c-11 6 -23 16 -26 21 -4 6 -24 7 -45 4 -51 -8 -114 -74 -125 -131 -8
-38 -6 -43 26 -73 19 -18 40 -30 48 -28 7 3 38 7 69 8 54 3 56 2 51 -22 -2
-13 3 -39 12 -58 13 -26 14 -37 5 -48 -7 -8 -9 -27 -4 -49 10 -55 37 -48 106
26 44 47 58 70 58 93 0 16 11 50 25 74 29 49 32 76 10 67 -8 -3 -15 0 -15 6 0
6 -8 18 -18 27 -9 9 -24 29 -31 44 -9 16 -20 26 -28 23 -17 -7 -17 9 1 23 12
10 21 4 48 -33 18 -25 38 -44 43 -42 6 1 15 18 21 37 11 31 10 34 -9 37 -12 2
-27 11 -34 20 -7 10 -13 12 -13 6 0 -6 3 -14 7 -17 3 -4 7 -19 9 -34 2 -27 2
-27 -8 -5 -6 12 -14 22 -17 22 -3 0 -7 19 -9 41 -3 39 -1 41 22 37 14 -3 23
-1 20 3 -3 5 -10 9 -16 9 -7 0 -22 9 -34 21 l-21 20 -6 -28z"/>
<path d="M2008 1705 c-2 -19 -1 -35 3 -35 4 0 5 -8 2 -19 -6 -24 52 -158 87
-201 l28 -34 26 24 c14 14 26 33 26 42 0 9 5 20 10 23 20 12 9 30 -35 60 -26
17 -45 38 -45 48 0 11 -4 15 -12 11 -6 -4 -8 -3 -4 4 9 14 -36 82 -51 77 -7
-2 -15 1 -19 7 -5 7 -2 8 6 3 8 -5 11 -3 8 5 -9 28 -26 20 -30 -15z"/>
<path d="M652 1218 c-1 -128 -6 -198 -12 -198 -7 0 -7 -6 -1 -18 13 -25 6 -93
-11 -103 -10 -7 -10 -9 0 -9 6 0 12 -4 12 -10 0 -5 -7 -7 -15 -4 -8 4 -15 1
-15 -5 0 -6 5 -11 12 -11 6 0 3 -9 -7 -20 -10 -11 -23 -20 -29 -20 -6 0 -5 5
2 12 17 17 15 33 -3 18 -26 -21 -28 -4 -3 20 l23 22 -24 -7 c-17 -5 -21 -4
-16 5 5 9 2 10 -11 3 -11 -5 -29 -8 -41 -7 -13 1 -111 2 -218 3 l-195 1 0 129
c0 85 5 142 14 168 10 27 11 44 4 54 -8 11 -9 11 -5 -2 3 -9 0 -22 -6 -28 -9
-9 -13 -106 -15 -341 l-3 -330 1668 0 c1339 1 1680 3 1729 14 112 24 298 135
278 167 -3 5 0 8 6 7 7 -2 32 25 56 60 48 69 82 165 66 185 -5 7 -12 21 -15
32 -4 13 -5 10 -5 -10 1 -16 0 -46 0 -67 l-2 -36 -220 1 c-191 2 -220 0 -218
-13 3 -12 31 -16 158 -20 136 -5 142 -11 15 -15 -159 -5 -160 -5 -172 -24 -11
-18 -10 -19 21 -10 37 10 283 5 294 -6 4 -4 -50 -5 -121 -4 -70 2 -127 1 -127
-3 0 -4 -10 -7 -22 -6 -45 2 -58 -2 -58 -18 0 -8 4 -12 10 -9 6 3 10 -1 10 -9
0 -19 33 -29 70 -21 23 5 30 3 30 -8 0 -9 6 -18 13 -20 10 -4 10 -6 0 -6 -8
-1 -13 -15 -13 -35 0 -34 -2 -35 -46 -42 -99 -15 -164 11 -198 80 -15 31 -19
69 -24 212 -3 96 -8 174 -11 174 -3 0 -6 -60 -6 -133 0 -167 1 -164 -38 -161
-108 8 -168 7 -178 -3 -6 -6 -9 -40 -7 -85 2 -41 -1 -79 -6 -84 -5 -5 -38 -7
-72 -6 l-64 4 0 244 0 244 -32 -1 -33 -1 30 -8 c17 -4 23 -8 15 -9 -10 -1 -11
-4 -4 -9 14 -8 15 -194 2 -186 -5 4 -6 -9 -3 -29 8 -41 -8 -79 -30 -71 -9 4
-22 1 -30 -6 -13 -11 -15 -10 -9 6 5 18 5 18 -6 1 -7 -10 -10 -21 -7 -24 5 -5
-5 -17 -66 -81 -17 -17 -56 -42 -87 -53 -55 -21 -61 -21 -207 -6 -11 1 -19 5
-17 9 2 4 -5 9 -15 13 -57 18 -130 144 -132 224 0 31 -2 33 -9 14 -5 -12 -5
-34 -1 -50 11 -40 -5 -111 -33 -148 -41 -53 -88 -70 -191 -69 -113 0 -171 21
-158 56 4 13 7 39 6 58 -1 24 1 30 7 20 6 -9 10 -10 10 -3 0 7 13 5 38 -7 82
-39 157 -32 182 16 25 46 -23 114 -83 117 -14 1 -23 5 -20 10 2 4 -15 5 -39 1
-24 -4 -47 -7 -53 -8 -5 0 -9 5 -8 12 2 6 -6 12 -16 12 -23 0 -37 30 -19 41 7
4 9 11 5 16 -10 9 -27 -15 -27 -38 0 -9 10 -20 22 -26 22 -10 22 -10 -5 -15
l-27 -5 1 70 c1 66 2 69 16 46 l14 -24 -7 25 c-4 14 -10 27 -14 30 -5 3 -10
19 -13 35 -2 17 -4 -28 -5 -100 0 -72 3 -121 7 -110 7 16 9 13 13 -18 4 -39
-7 -61 -15 -30 -3 10 -5 -21 -6 -69 l-1 -88 -99 0 -99 0 0 189 c0 219 -4 244
-37 259 -16 7 -25 8 -25 2 0 -6 7 -10 16 -10 9 0 12 -5 8 -12 -4 -6 -3 -8 3
-5 14 9 23 -40 23 -119 l0 -64 -50 0 -50 0 0 -40 0 -40 43 -2 42 -1 -45 -6
-45 -6 -3 -65 c-2 -35 -7 -69 -12 -75 -5 -6 -44 -9 -99 -7 l-91 3 0 182 c0
206 -8 253 -47 268 -29 11 -36 7 -38 -20 -1 -14 5 -17 30 -15 l32 2 0 -71 c0
-40 2 -79 4 -87 3 -12 -8 -16 -49 -18 -55 -3 -80 -25 -51 -43 10 -6 10 -9 2
-9 -10 0 -13 -26 -13 -95 l0 -95 -102 0 -103 0 3 287 c1 157 -1 290 -5 294 -4
5 -7 -76 -6 -179 0 -103 -1 -181 -4 -174 -3 7 -23 12 -49 12 -44 0 -59 -15
-27 -27 15 -6 14 -7 -3 -13 -13 -5 -21 -2 -26 9 -7 15 -2 -35 8 -84 2 -11 -3
-6 -11 10 -14 29 -15 28 -19 -17 -1 -7 -11 -24 -23 -38 -17 -18 -19 -26 -10
-33 9 -6 8 -7 -3 -5 -8 1 -37 -9 -65 -22 -44 -22 -63 -25 -157 -25 -58 0 -109
3 -113 7 -4 3 -3 42 0 87 l7 80 63 -6 c57 -5 63 -4 88 21 14 14 29 41 32 59 3
17 4 142 3 277 l-3 245 -3 -197z"/>
<path d="M2570 1116 c0 -9 6 -13 14 -10 19 7 32 -16 15 -27 -10 -6 -8 -9 9 -9
27 0 39 -24 22 -45 -9 -10 -9 -15 -1 -15 6 0 12 6 12 13 2 22 17 -47 18 -85 1
-51 -16 -56 -176 -48 -40 2 -75 1 -79 -2 -9 -9 6 -68 17 -68 5 0 9 7 9 15 0 8
-4 15 -10 15 -5 0 -10 5 -10 11 0 8 5 8 15 -1 19 -15 21 -65 3 -54 -22 14 18
-39 44 -59 32 -24 89 -24 122 0 14 10 38 41 52 70 50 100 19 262 -58 304 -14
7 -18 6 -18 -5z"/>
<path d="M1085 418 c-14 -31 -68 -37 -87 -9 -13 19 -14 19 -27 -10 -18 -40
-53 -39 -74 2 -14 30 -15 30 -22 10 -7 -24 -59 -30 -72 -8 -9 16 -53 29 -53
16 0 -5 9 -9 20 -9 11 0 20 -4 20 -10 0 -5 -16 -10 -35 -10 -28 0 -35 4 -35
20 0 11 -3 20 -8 20 -4 0 -13 -9 -20 -20 -13 -22 -61 -27 -79 -9 -8 8 -13 8
-17 0 -4 -6 -17 -11 -30 -11 -38 0 -61 -35 -28 -43 9 -3 -2 -5 -25 -6 -24 0
-43 -4 -43 -9 0 -17 33 -53 63 -69 64 -33 705 -35 815 -2 33 9 50 9 88 -1 67
-19 1678 -20 1742 -2 23 7 58 27 78 44 33 29 34 32 17 39 -11 4 -33 6 -49 5
-25 -2 -30 2 -32 23 -2 29 -9 36 -39 46 -17 5 -23 2 -23 -9 0 -9 -7 -16 -15
-16 -8 0 -15 7 -15 15 0 8 -4 15 -9 15 -5 0 -14 -7 -21 -15 -17 -20 -76 -19
-88 1 -8 14 -10 14 -25 0 -20 -20 -37 -21 -37 -1 0 8 -4 15 -9 15 -5 0 -16 3
-24 6 -12 4 -14 0 -10 -15 7 -26 -14 -28 -33 -3 -13 16 -13 16 -14 0 0 -27
-30 -22 -31 5 l0 22 -9 -22 c-12 -30 -60 -31 -85 -3 -19 21 -55 27 -55 10 0
-5 11 -10 25 -10 14 0 25 -4 25 -10 0 -5 -18 -10 -40 -10 -33 0 -40 3 -40 20
0 11 -3 20 -8 20 -4 0 -13 -9 -20 -20 -18 -29 -68 -27 -76 3 l-7 22 -11 -22
c-6 -13 -15 -23 -20 -23 -4 0 -8 10 -9 23 l0 22 -9 -22 c-13 -32 -80 -34 -80
-3 0 16 -7 20 -30 20 -16 0 -30 -4 -30 -10 0 -5 9 -10 19 -10 11 0 23 -5 26
-10 4 -6 -10 -10 -34 -10 -37 0 -41 2 -41 25 0 14 -4 25 -9 25 -5 0 -12 -11
-15 -25 -7 -29 -23 -32 -42 -7 -13 16 -13 16 -14 0 0 -22 -36 -24 -44 -3 -7
19 -42 19 -50 0 -8 -22 -56 -18 -82 6 l-23 21 6 -21 c4 -15 1 -21 -10 -21 -8
0 -17 6 -20 13 -3 10 -9 10 -26 0 -30 -18 -34 -16 -29 12 3 14 1 25 -3 25 -5
0 -9 -11 -9 -24 0 -21 -5 -24 -45 -24 -38 -1 -45 2 -45 18 0 16 -7 20 -30 20
-16 0 -30 -4 -30 -10 0 -5 11 -10 25 -10 14 0 25 -4 25 -10 0 -5 -18 -10 -40
-10 -33 0 -40 3 -40 20 0 13 -7 20 -20 20 -13 0 -20 -7 -20 -20 0 -11 -7 -20
-15 -20 -8 0 -15 9 -15 20 0 11 -6 20 -14 20 -7 0 -16 -9 -19 -20 -4 -14 -14
-20 -35 -20 -29 0 -58 21 -45 33 3 4 1 7 -5 7 -7 0 -12 -9 -12 -20 0 -28 -30
-26 -31 3 l0 22 -9 -22 c-6 -15 -18 -23 -33 -23 -25 0 -62 -32 -50 -43 3 -4
-3 -7 -14 -7 -12 0 -41 18 -64 40 -48 44 -54 47 -63 25 -7 -19 -60 -20 -75 -2
-6 8 -8 17 -4 20 3 4 -8 7 -25 7 -18 0 -32 -4 -32 -10 0 -5 11 -10 25 -10 14
0 25 -4 25 -10 0 -5 -18 -10 -40 -10 -36 0 -40 3 -40 25 0 31 -12 32 -25 3z"/>
</g>
</svg>
