<?xml version="1.0" standalone="no"?>
<!DOCTYPE svg PUBLIC "-//W3C//DTD SVG 20010904//EN"
 "http://www.w3.org/TR/2001/REC-SVG-20010904/DTD/svg10.dtd">
<svg version="1.0" xmlns="http://www.w3.org/2000/svg"
 width="800.000000pt" height="600.000000pt" viewBox="0 0 800.000000 600.000000"
 preserveAspectRatio="xMidYMid meet">

<g transform="translate(0.000000,600.000000) scale(0.100000,-0.100000)"
fill="#000000" stroke="none">
<path d="M4575 3868 c17 -6 33 -16 37 -22 5 -8 8 -7 8 2 0 12 -41 33 -63 31
-7 0 2 -5 18 -11z"/>
<path d="M4198 3844 c-16 -8 -27 -22 -27 -32 1 -16 2 -16 6 0 5 19 38 33 66
29 9 -1 17 2 17 6 0 14 -33 12 -62 -3z"/>
<path d="M4387 3843 c-9 -2 -15 -9 -12 -14 4 -5 2 -9 -4 -9 -5 0 -12 6 -14 13
-3 7 -6 5 -6 -5 -1 -10 -7 -18 -15 -18 -7 0 -20 -8 -27 -17 -11 -15 -11 -16 1
-5 8 6 24 12 35 12 12 0 32 11 45 25 13 14 22 24 19 24 -2 -1 -12 -3 -22 -6z"/>
<path d="M4674 3811 c20 -22 26 -25 26 -13 0 4 -10 13 -22 21 -23 14 -23 14
-4 -8z"/>
<path d="M4580 3805 c0 -8 2 -15 4 -15 2 0 6 7 10 15 3 8 1 15 -4 15 -6 0 -10
-7 -10 -15z"/>
<path d="M4120 3785 c-32 -34 -21 -37 14 -3 16 16 24 28 19 28 -5 0 -20 -11
-33 -25z"/>
<path d="M4206 3785 c-11 -8 -14 -15 -8 -15 7 0 12 -7 12 -17 0 -9 2 -14 4
-12 5 4 16 59 13 59 -1 0 -11 -7 -21 -15z"/>
<path d="M4507 3793 c-4 -3 -7 -13 -7 -22 1 -14 2 -13 11 2 12 20 29 23 29 4
0 -8 6 -14 14 -14 11 0 12 4 3 19 -12 18 -38 24 -50 11z"/>
<path d="M4717 3779 c7 -9 9 -20 5 -24 -4 -5 -2 -5 4 -2 13 8 28 -19 25 -43
-1 -11 0 -12 7 -2 6 9 12 6 21 -11 7 -12 13 -29 15 -37 5 -27 27 -73 31 -68
16 16 -60 156 -102 189 -16 12 -17 12 -6 -2z"/>
<path d="M4138 3743 c-10 -21 -20 -27 -38 -26 -22 2 -23 2 -5 -6 22 -9 45 -4
45 10 0 4 6 7 13 5 6 -1 9 -1 5 1 -5 3 -8 9 -8 14 0 6 4 7 10 4 6 -3 7 1 4 9
-8 22 -11 20 -26 -11z"/>
<path d="M4180 3749 c0 -5 5 -7 10 -4 6 3 10 8 10 11 0 2 -4 4 -10 4 -5 0 -10
-5 -10 -11z"/>
<path d="M4561 3714 c0 -11 3 -14 6 -6 3 7 2 16 -1 19 -3 4 -6 -2 -5 -13z"/>
<path d="M4670 3698 c0 -18 -2 -20 -10 -8 -8 13 -11 13 -22 0 -7 -8 -9 -11 -4
-7 5 4 15 2 22 -4 13 -10 16 -7 27 24 4 9 2 17 -3 17 -6 0 -10 -10 -10 -22z"/>
<path d="M4700 3713 c0 -14 48 -68 54 -62 2 2 -9 20 -25 39 -16 19 -29 29 -29
23z"/>
<path d="M4054 3698 c-3 -5 -1 -15 5 -21 8 -8 15 -7 27 5 14 14 14 16 -5 21
-12 3 -24 1 -27 -5z m21 -8 c3 -5 1 -10 -4 -10 -6 0 -11 5 -11 10 0 6 2 10 4
10 3 0 8 -4 11 -10z"/>
<path d="M4484 3679 c-10 -12 -18 -30 -16 -40 3 -15 -3 -19 -22 -19 -16 0 -26
-6 -26 -14 0 -21 20 -30 33 -17 8 8 6 11 -8 12 -19 1 -19 1 0 8 57 21 85 34
85 40 0 4 9 7 20 8 11 1 18 -2 15 -6 -7 -12 22 -34 33 -27 5 3 12 17 14 31 3
13 1 22 -3 19 -5 -3 -9 -12 -9 -20 0 -8 -7 -14 -15 -14 -13 0 -14 4 -5 20 10
18 8 19 -14 10 -17 -6 -29 -5 -42 6 -17 14 -17 15 -2 10 10 -3 20 -1 23 4 12
20 -42 9 -61 -11z m33 -16 c5 -13 -25 -26 -38 -17 -6 3 -5 11 2 20 13 16 31
14 36 -3z"/>
<path d="M4677 3644 c-3 -16 -1 -33 5 -39 8 -7 9 -5 5 6 -3 9 -2 21 2 28 5 7
8 -3 9 -23 1 -19 -3 -38 -9 -41 -5 -4 3 -21 20 -40 16 -19 34 -42 40 -52 11
-17 12 -17 26 1 22 29 20 66 -5 66 -10 0 -24 8 -29 18 -6 9 -11 12 -11 6 0 -6
3 -14 7 -17 3 -4 7 -19 9 -34 2 -27 2 -27 -8 -5 -6 12 -14 22 -17 22 -3 0 -7
19 -9 41 -3 39 -1 41 22 37 14 -3 23 -1 20 3 -3 5 -12 9 -20 9 -9 0 -24 10
-33 22 l-18 21 -6 -29z m103 -125 c0 -11 -4 -17 -10 -14 -5 3 -10 13 -10 21 0
8 5 14 10 14 6 0 10 -9 10 -21z"/>
<path d="M4635 3621 c-6 -11 9 -23 19 -14 9 9 7 23 -3 23 -6 0 -12 -4 -16 -9z"/>
<path d="M4726 3601 c-3 -4 0 -8 7 -9 51 -7 60 -6 65 8 3 12 2 12 -8 3 -8 -8
-20 -9 -36 -3 -13 5 -26 6 -28 1z"/>
<path d="M4454 3560 c-12 -5 -25 -14 -30 -21 -4 -8 -3 -10 4 -5 8 5 12 0 12
-13 0 -11 -9 -25 -20 -31 -12 -6 -20 -7 -20 -1 0 5 6 12 13 14 10 4 10 6 0 6
-7 1 -22 -8 -33 -19 -22 -22 -28 -80 -7 -80 8 0 7 -3 -3 -10 -12 -7 -11 -13
10 -35 22 -23 29 -25 101 -22 l77 3 -5 -25 c-2 -14 4 -40 14 -58 15 -28 16
-37 5 -53 -7 -11 -10 -31 -6 -45 13 -52 86 -20 124 54 8 15 8 21 1 17 -7 -4
-9 -1 -5 7 3 8 1 18 -5 22 -14 8 -14 35 -1 35 6 0 10 -7 10 -15 0 -8 5 -15 10
-15 6 0 10 -8 10 -17 0 -15 2 -16 10 -3 5 8 10 25 10 38 0 12 11 45 25 73 23
44 26 77 6 65 -4 -3 -24 20 -46 49 -21 30 -43 51 -49 48 -5 -4 -7 0 -4 9 5 11
-1 15 -23 16 -16 0 -29 -4 -29 -9 0 -5 -8 -9 -17 -10 -15 0 -15 -2 2 -9 26
-11 44 -12 27 -1 -11 7 -11 9 1 14 20 7 39 -16 31 -36 -4 -11 -17 -16 -38 -15
-18 1 -38 -2 -44 -6 -7 -4 -12 -2 -12 3 0 15 -77 14 -83 -1 -3 -7 -6 -1 -6 14
-1 21 5 29 22 33 13 4 27 5 33 4 5 -1 18 -1 29 0 19 2 19 3 -2 13 -13 6 -23
15 -23 20 0 10 -48 9 -76 -2z m65 -14 c-12 -10 -49 -16 -49 -7 0 5 10 11 23
13 22 4 34 1 26 -6z m-63 -61 c-7 -18 -46 -39 -46 -25 0 5 7 10 15 10 10 0 17
15 22 43 7 36 8 38 11 14 2 -16 1 -35 -2 -42z m236 -14 c-3 -9 -1 -12 6 -7 7
4 12 2 12 -4 0 -7 -6 -10 -14 -7 -7 3 -19 0 -25 -6 -8 -8 -11 -8 -11 1 0 7 -7
9 -17 5 -17 -6 -17 -6 -1 10 9 9 20 26 23 38 6 19 8 19 20 3 7 -10 10 -25 7
-33z m-315 -33 c-3 -8 -6 -5 -6 6 -1 11 2 17 5 13 3 -3 4 -12 1 -19z m240 16
c-3 -3 -12 -4 -19 -1 -8 3 -5 6 6 6 11 1 17 -2 13 -5z m43 -21 c0 -5 -40 -8
-90 -8 -49 0 -90 3 -90 8 0 4 41 7 90 7 50 0 90 -3 90 -7z m30 -3 c0 -5 -5
-10 -11 -10 -5 0 -7 5 -4 10 3 6 8 10 11 10 2 0 4 -4 4 -10z m43 -5 c4 -8 2
-17 -3 -20 -6 -4 -10 3 -10 14 0 25 6 27 13 6z m-336 -37 c-3 -7 -5 -2 -5 12
0 14 2 19 5 13 2 -7 2 -19 0 -25z m361 8 c-7 -8 -15 -12 -17 -11 -5 6 10 25
20 25 5 0 4 -6 -3 -14z m-30 -56 c-13 -39 -28 -48 -35 -21 -6 23 -23 27 -41 9
-9 -9 -12 -9 -12 -1 0 7 10 15 23 19 12 4 26 12 30 18 6 7 7 4 3 -6 -3 -12 0
-18 10 -18 8 0 12 5 9 10 -3 6 -1 10 5 10 6 0 8 5 4 12 -4 6 -3 8 4 4 8 -4 8
-15 0 -36z m-101 -72 c-3 -8 -6 -5 -6 6 -1 11 2 17 5 13 3 -3 4 -12 1 -19z"/>
<path d="M4667 3483 c-4 -3 -7 -11 -7 -17 0 -6 5 -5 12 2 6 6 9 14 7 17 -3 3
-9 2 -12 -2z"/>
<path d="M4016 3482 c-14 -23 -2 -112 22 -167 30 -71 70 -128 83 -119 5 3 8 2
7 -3 -5 -13 16 -10 35 6 9 9 17 23 17 31 0 9 6 22 13 29 10 10 4 19 -28 47
-22 18 -43 34 -47 34 -5 0 -8 9 -8 21 0 13 -4 18 -12 13 -6 -4 -8 -3 -4 4 9
14 -36 82 -51 77 -7 -2 -15 1 -19 7 -4 7 -3 8 4 4 7 -4 12 -3 12 3 0 14 -17
23 -24 13z m33 -71 c-15 -5 -22 6 -14 19 6 9 10 9 16 -1 5 -8 4 -15 -2 -18z
m11 -61 c-6 -11 -13 -20 -16 -20 -2 0 0 9 6 20 6 11 13 20 16 20 2 0 0 -9 -6
-20z m40 -4 c0 -8 -4 -17 -9 -21 -12 -7 -24 12 -16 25 9 15 25 12 25 -4z"/>
<path d="M2493 3313 c9 -2 23 -2 30 0 6 3 -1 5 -18 5 -16 0 -22 -2 -12 -5z"/>
<path d="M5912 3290 c0 -19 2 -27 5 -17 2 9 2 25 0 35 -3 9 -5 1 -5 -18z"/>
<path d="M3980 3273 c0 -6 8 -17 18 -24 16 -13 16 -13 2 6 -8 11 -16 22 -17
24 -2 2 -3 0 -3 -6z"/>
<path d="M5038 3243 c7 -3 16 -2 19 1 4 3 -2 6 -13 5 -11 0 -14 -3 -6 -6z"/>
<path d="M5912 3230 c0 -14 2 -19 5 -12 2 6 2 18 0 25 -3 6 -5 1 -5 -13z"/>
<path d="M2717 3233 c18 -2 50 -2 70 0 21 2 7 4 -32 4 -38 0 -55 -2 -38 -4z"/>
<path d="M2269 3213 c-13 -16 -12 -17 4 -4 16 13 21 21 13 21 -2 0 -10 -8 -17
-17z"/>
<path d="M2652 3195 c0 -16 2 -22 5 -12 2 9 2 23 0 30 -3 6 -5 -1 -5 -18z"/>
<path d="M5914 2995 c0 -115 2 -161 3 -102 2 59 2 154 0 210 -1 56 -3 8 -3
-108z"/>
<path d="M2219 3173 c-13 -17 -13 -17 6 -3 11 8 22 16 24 17 2 2 0 3 -6 3 -6
0 -17 -8 -24 -17z"/>
<path d="M4749 3163 l-24 -28 28 24 c25 23 32 31 24 31 -2 0 -14 -12 -28 -27z"/>
<path d="M4915 3149 c-9 -17 -15 -33 -13 -35 3 -2 12 12 21 31 21 43 13 47 -8
4z"/>
<path d="M2652 2968 c-1 -128 -6 -198 -12 -198 -7 0 -7 -6 -1 -18 13 -25 6
-93 -11 -103 -10 -7 -10 -9 0 -9 6 0 12 -4 12 -10 0 -5 -7 -7 -15 -4 -8 4 -15
1 -15 -5 0 -6 5 -11 12 -11 6 0 3 -9 -7 -20 -10 -11 -23 -20 -29 -20 -6 0 -5
5 2 12 17 17 15 33 -3 18 -26 -21 -28 -4 -3 20 l23 22 -24 -7 c-17 -5 -21 -4
-16 5 5 9 2 10 -11 3 -11 -5 -29 -8 -41 -7 -13 1 -111 2 -218 3 l-195 1 0 129
c0 85 5 142 14 168 10 27 11 44 4 54 -8 11 -9 11 -5 -2 3 -9 0 -22 -6 -28 -9
-9 -13 -106 -15 -341 l-3 -330 1668 0 c1339 1 1680 3 1729 14 115 24 298 136
278 168 -4 6 -2 8 4 4 30 -18 149 216 124 247 -5 7 -12 21 -15 32 -4 13 -5 10
-5 -10 1 -16 0 -46 0 -67 l-2 -36 -220 1 c-191 2 -220 0 -218 -13 3 -12 31
-16 158 -20 136 -5 142 -11 15 -15 -159 -5 -160 -5 -172 -24 -11 -18 -10 -19
21 -10 37 10 283 5 294 -6 4 -4 -50 -5 -121 -4 -70 2 -127 1 -127 -3 0 -4 -10
-7 -22 -6 -45 2 -58 -2 -58 -18 0 -8 5 -12 10 -9 6 3 10 -1 10 -9 0 -19 33
-29 70 -21 23 5 30 3 30 -8 0 -9 6 -18 13 -20 10 -4 10 -6 0 -6 -8 -1 -13 -15
-13 -35 0 -34 -2 -35 -46 -42 -99 -15 -164 11 -198 80 -15 31 -19 69 -24 212
-3 96 -8 174 -11 174 -3 0 -6 -60 -6 -133 0 -167 1 -164 -38 -161 -108 8 -168
7 -178 -3 -6 -6 -9 -40 -7 -85 2 -41 -1 -79 -6 -84 -5 -5 -38 -7 -72 -6 l-64
4 0 244 0 244 -32 -1 -33 -1 30 -8 c17 -4 23 -8 15 -9 -10 -1 -11 -4 -4 -9 14
-8 15 -194 2 -186 -5 4 -6 -9 -3 -29 8 -41 -8 -79 -30 -71 -9 4 -22 1 -30 -6
-13 -11 -15 -10 -9 6 5 18 5 18 -6 1 -7 -10 -10 -21 -7 -24 5 -5 -5 -17 -66
-81 -17 -17 -56 -42 -87 -53 -55 -21 -61 -21 -207 -6 -11 1 -19 5 -17 9 2 4
-5 9 -15 13 -57 18 -130 144 -132 224 0 31 -2 33 -9 14 -5 -12 -5 -34 -1 -50
11 -40 -5 -111 -33 -148 -41 -53 -88 -70 -191 -69 -113 0 -171 21 -159 56 4
13 8 32 8 43 2 36 17 43 55 24 81 -38 156 -31 181 17 25 46 -23 114 -83 117
-14 1 -23 5 -21 8 2 4 -17 6 -41 5 -25 0 -45 -5 -45 -9 0 -5 -5 -5 -10 -2 -6
4 -7 11 -4 17 5 7 -2 9 -17 6 -19 -3 -24 0 -25 19 -1 13 2 23 8 23 5 0 6 10 2
23 -15 48 -15 51 1 22 9 -16 29 -40 43 -53 l27 -23 -29 11 c-16 6 -31 8 -34 6
-5 -6 36 -23 76 -32 26 -5 25 -4 -11 27 -48 40 -69 82 -69 132 1 74 33 123
100 153 38 17 43 28 5 13 -56 -21 -83 -44 -100 -87 -18 -42 -20 -44 -36 -28
-9 10 -17 14 -17 10 0 -3 -7 -1 -15 6 -12 10 -13 16 -4 26 9 11 8 14 -6 14
-17 0 -18 -10 -12 -127 4 -71 10 -190 13 -265 l7 -138 -66 -2 c-37 -1 -79 -2
-94 -2 l-28 -1 -5 123 c-4 93 -9 125 -20 132 -10 7 -11 10 -3 10 17 0 17 218
0 239 -10 12 -9 13 1 7 11 -7 12 2 7 45 -6 51 -15 79 -15 48 0 -8 -39 -143
-87 -301 l-87 -288 -82 0 c-70 0 -83 3 -88 18 -3 9 -18 76 -35 147 -41 185
-74 310 -82 313 -4 2 -5 11 -3 20 2 9 -2 42 -9 72 -13 53 -13 50 -20 -135 -4
-104 -10 -247 -14 -317 l-6 -128 -93 0 -92 0 5 79 c5 72 4 79 -13 84 -16 4
-17 5 -2 6 31 2 39 86 8 86 -11 0 -15 -11 -14 -40 l2 -40 -14 30 c-14 30 -14
30 -8 -15 4 -33 3 -41 -5 -30 -11 16 -11 16 -15 -32 -1 -7 -11 -24 -23 -38
-17 -18 -19 -26 -10 -33 9 -6 8 -7 -3 -5 -8 1 -37 -9 -65 -22 -44 -22 -63 -25
-157 -25 -58 0 -109 3 -113 7 -4 3 -3 42 0 87 l7 80 63 -6 c57 -5 63 -4 88 21
14 14 29 41 32 59 3 17 4 142 3 277 l-3 245 -3 -197z m1208 -132 c0 -8 -4 -18
-10 -21 -5 -3 -10 3 -10 14 0 12 5 21 10 21 6 0 10 -6 10 -14z m3 -47 c-8 -8
-16 -8 -30 0 -16 9 -14 10 12 11 21 0 26 -3 18 -11z m-1343 -173 c0 -18 -15
-36 -29 -35 -9 0 -11 3 -4 5 7 3 9 12 6 20 -3 8 1 14 11 14 9 0 16 -2 16 -4z
m1563 -24 c9 -8 17 -21 17 -28 0 -18 -122 -23 -163 -6 l-32 12 33 -5 c19 -3
43 0 54 6 15 8 19 8 14 0 -5 -7 8 -11 38 -11 25 0 46 4 46 9 0 5 -17 8 -37 5
-36 -3 -37 -3 -15 9 l23 13 -23 12 -23 12 25 -6 c14 -4 33 -13 43 -22z m-1615
11 c-10 -2 -18 -9 -18 -14 0 -6 5 -7 10 -4 6 3 10 1 10 -4 0 -6 -7 -11 -15
-11 -9 0 -15 -10 -16 -27 l-1 -28 -8 30 c-4 17 -8 24 -9 17 -1 -10 -34 -13
-151 -11 -146 2 -150 2 -149 23 1 17 2 18 6 3 4 -14 8 -16 19 -6 10 8 14 8 14
0 0 -7 39 -11 125 -11 102 0 127 3 131 15 4 8 11 12 17 8 6 -3 7 -1 3 6 -5 7
-20 9 -39 6 -18 -3 -63 -1 -102 4 -65 8 -61 8 60 9 72 0 122 -2 113 -5z m1552
-3 c13 -8 13 -10 -2 -10 -9 0 -20 5 -23 10 -8 13 5 13 25 0z m1780 -40 c0 -3
-8 -14 -16 -25 -16 -20 -16 -19 -9 4 5 16 4 21 -4 17 -6 -4 -11 -3 -11 3 0 5
9 9 20 8 11 -1 20 -4 20 -7z m16 -18 c-18 -16 -18 -16 -6 6 6 13 14 21 18 18
3 -4 -2 -14 -12 -24z m-1896 4 c0 -2 -9 -6 -20 -9 -11 -3 -20 -1 -20 4 0 5 9
9 20 9 11 0 20 -2 20 -4z m-1513 -28 c-3 -8 -6 -5 -6 6 -1 11 2 17 5 13 3 -3
4 -12 1 -19z m1703 18 c0 -3 -4 -8 -10 -11 -5 -3 -10 -1 -10 4 0 6 5 11 10 11
6 0 10 -2 10 -4z m-145 -16 c3 -5 1 -10 -4 -10 -6 0 -11 5 -11 10 0 6 2 10 4
10 3 0 8 -4 11 -10z m1235 6 c0 -2 -18 -6 -39 -8 -22 -2 -37 0 -35 4 5 8 74
11 74 4z m50 -16 c0 -11 -2 -20 -4 -20 -2 0 -6 9 -9 20 -3 11 -1 20 4 20 5 0
9 -9 9 -20z m-960 -37 c0 -6 6 -14 13 -16 8 -4 8 -6 0 -6 -10 -1 -43 51 -43
67 0 11 29 -33 30 -45z m-1855 28 c3 -5 1 -12 -5 -16 -5 -3 -10 1 -10 9 0 18
6 21 15 7z m2365 -11 c0 -5 -8 -10 -17 -10 -15 0 -16 2 -3 10 19 12 20 12 20
0z m-543 -22 c-3 -8 -6 -5 -6 6 -1 11 2 17 5 13 3 -3 4 -12 1 -19z m921 15
c-15 -2 -42 -2 -60 0 -18 2 -6 4 27 4 33 0 48 -2 33 -4z m-408 -23 c0 -5 -5
-10 -11 -10 -5 0 -7 5 -4 10 3 6 8 10 11 10 2 0 4 -4 4 -10z m820 -10 c0 -5
-5 -10 -11 -10 -5 0 -7 5 -4 10 3 6 8 10 11 10 2 0 4 -4 4 -10z m-1153 -86
c-3 -3 -12 -4 -19 -1 -8 3 -5 6 6 6 11 1 17 -2 13 -5z m240 -10 c-3 -3 -12 -4
-19 -1 -8 3 -5 6 6 6 11 1 17 -2 13 -5z"/>
<path d="M2175 3114 c-9 -15 -12 -23 -6 -20 11 7 35 46 28 46 -3 0 -12 -12
-22 -26z"/>
<path d="M4157 3088 c7 -8 10 -18 6 -22 -4 -4 0 -4 10 0 22 8 22 11 -5 25 -20
11 -21 10 -11 -3z"/>
<path d="M4650 3090 c-9 -6 -10 -10 -3 -10 6 0 15 5 18 10 8 12 4 12 -15 0z"/>
<path d="M4891 3074 c0 -11 3 -14 6 -6 3 7 2 16 -1 19 -3 4 -6 -2 -5 -13z"/>
<path d="M2132 3035 c-6 -14 -8 -25 -3 -25 8 0 23 41 17 47 -1 2 -8 -8 -14
-22z"/>
<path d="M4240 3050 c8 -5 22 -9 30 -9 10 0 8 3 -5 9 -27 12 -43 12 -25 0z"/>
<path d="M4298 3033 c7 -3 16 -2 19 1 4 3 -2 6 -13 5 -11 0 -14 -3 -6 -6z"/>
<path d="M4418 3023 c6 -2 18 -2 25 0 6 3 1 5 -13 5 -14 0 -19 -2 -12 -5z"/>
<path d="M4499 2999 c-16 -5 -5 -7 34 -8 31 -1 57 1 57 3 0 8 -67 11 -91 5z"/>
<path d="M4882 2990 c0 -14 2 -19 5 -12 2 6 2 18 0 25 -3 6 -5 1 -5 -13z"/>
<path d="M4053 2993 c15 -2 39 -2 55 0 15 2 2 4 -28 4 -30 0 -43 -2 -27 -4z"/>
<path d="M5419 2987 c5 -5 21 -7 37 -5 27 3 26 4 -8 9 -22 3 -34 1 -29 -4z"/>
<path d="M4187 2979 c7 -7 15 -10 18 -7 3 3 -2 9 -12 12 -14 6 -15 5 -6 -5z"/>
<path d="M5223 2983 c9 -2 25 -2 35 0 9 3 1 5 -18 5 -19 0 -27 -2 -17 -5z"/>
<path d="M2860 2810 c0 -90 3 -160 7 -156 7 7 5 308 -3 315 -2 2 -4 -69 -4
-159z"/>
<path d="M3295 2923 c7 -27 21 -84 30 -128 23 -113 25 -115 41 -70 16 47 18
69 4 60 -5 -3 -10 -1 -10 4 0 6 8 11 17 11 14 0 13 3 -5 16 -12 8 -22 21 -22
27 0 7 4 6 10 -3 7 -11 10 -12 10 -2 0 7 -7 20 -15 28 -8 9 -15 12 -15 8 0 -5
-5 -3 -12 4 -15 15 -20 62 -5 62 11 0 -23 29 -35 30 -4 0 -1 -21 7 -47z"/>
<path d="M3780 2962 c1 -22 18 -32 40 -24 23 9 23 9 -8 20 -18 6 -32 8 -32 4z"/>
<path d="M4367 2957 c2 -4 -6 -11 -19 -16 -13 -6 -19 -10 -14 -10 5 -1 0 -9
-11 -18 -11 -10 -23 -28 -27 -41 -4 -12 -12 -20 -17 -17 -5 3 -6 -2 -3 -12 5
-16 4 -16 -10 1 -9 11 -16 15 -16 9 0 -7 5 -15 10 -18 6 -3 10 -11 10 -16 0
-6 -3 -8 -7 -6 -5 3 -9 -5 -10 -16 -1 -12 -4 -33 -7 -47 -2 -14 -5 -27 -5 -30
-1 -2 -6 1 -13 8 -14 14 -48 16 -48 2 0 -5 7 -7 15 -4 8 4 21 1 29 -5 7 -6 16
-8 20 -4 4 4 4 -1 0 -11 -5 -12 -4 -17 3 -13 6 4 13 29 16 56 10 84 67 175
132 209 17 9 17 10 -7 9 -14 -1 -24 -5 -21 -10z"/>
<path d="M4690 2950 c14 -11 34 -25 45 -31 14 -7 12 -4 -5 11 -14 11 -34 25
-45 31 -14 7 -12 4 5 -11z"/>
<path d="M3865 2950 c-3 -5 -1 -10 4 -10 6 0 11 5 11 10 0 6 -2 10 -4 10 -3 0
-8 -4 -11 -10z"/>
<path d="M4798 2915 c2 -19 6 -35 8 -35 2 0 4 16 4 35 0 19 -4 35 -8 35 -4 0
-6 -16 -4 -35z"/>
<path d="M5177 2927 c-11 -29 -9 -43 4 -30 6 6 9 19 7 29 -3 18 -4 18 -11 1z"/>
<path d="M4088 2883 c23 -2 42 -9 42 -14 0 -6 -9 -7 -22 -3 -13 3 -19 3 -15
-2 8 -8 97 -13 97 -6 0 10 -76 32 -107 30 l-38 -1 43 -4z"/>
<path d="M4484 2876 c-38 -17 -50 -34 -35 -49 9 -9 11 -8 6 4 -6 17 20 32 85
50 l25 7 -25 0 c-14 1 -39 -5 -56 -12z"/>
<path d="M5545 2880 c-3 -5 -1 -10 4 -10 6 0 11 5 11 10 0 6 -2 10 -4 10 -3 0
-8 -4 -11 -10z"/>
<path d="M4205 2869 c-4 -6 -5 -12 -2 -15 2 -3 7 2 10 11 7 17 1 20 -8 4z"/>
<path d="M4570 2866 c0 -9 6 -13 14 -10 19 7 32 -16 15 -27 -10 -6 -8 -9 9 -9
27 0 39 -24 22 -45 -9 -10 -9 -15 -1 -15 6 0 12 6 12 13 2 22 17 -47 18 -85 1
-51 -16 -56 -176 -48 -40 2 -75 1 -79 -2 -9 -9 6 -68 17 -68 5 0 9 7 9 15 0 8
-4 15 -10 15 -5 0 -10 5 -10 11 0 8 5 8 15 -1 19 -15 21 -65 3 -54 -22 14 18
-39 44 -59 32 -24 89 -24 122 0 14 10 38 41 52 70 50 100 19 262 -58 304 -14
7 -18 6 -18 -5z m-101 -252 c7 17 8 17 14 3 3 -8 1 -17 -5 -19 -7 -3 -8 -10
-4 -17 6 -9 25 -12 62 -9 39 3 54 1 54 -8 0 -7 -4 -16 -10 -19 -5 -3 -10 2
-10 12 0 11 -3 14 -8 7 -4 -6 -25 -10 -47 -8 -59 6 -61 6 -62 23 -1 9 -4 27
-7 41 l-7 25 12 -25 c10 -23 12 -24 18 -6z m147 -69 c-9 -9 -16 -13 -16 -8 0
12 22 34 28 28 2 -2 -3 -11 -12 -20z"/>
<path d="M4772 2857 c10 -24 13 -26 21 -11 8 13 11 14 18 3 7 -11 9 -10 9 4 0
19 -15 23 -25 6 -5 -6 -12 -4 -21 8 -13 16 -13 15 -2 -10z"/>
<path d="M5178 2873 c7 -3 16 -2 19 1 4 3 -2 6 -13 5 -11 0 -14 -3 -6 -6z"/>
<path d="M4029 2861 c8 -5 10 -14 6 -21 -5 -9 -4 -11 3 -6 18 11 14 36 -5 36
-14 0 -15 -2 -4 -9z"/>
<path d="M4065 2859 c-4 -6 -5 -12 -2 -15 2 -3 7 2 10 11 7 17 1 20 -8 4z"/>
<path d="M5090 2860 l-65 -7 68 -1 c39 -1 67 2 67 8 0 6 -1 9 -2 8 -2 -1 -32
-4 -68 -8z"/>
<path d="M5230 2859 c0 -5 5 -7 10 -4 6 3 10 8 10 11 0 2 -4 4 -10 4 -5 0 -10
-5 -10 -11z"/>
<path d="M5260 2859 c0 -5 5 -7 10 -4 6 3 10 8 10 11 0 2 -4 4 -10 4 -5 0 -10
-5 -10 -11z"/>
<path d="M2112 2835 c0 -16 2 -22 5 -12 2 9 2 23 0 30 -3 6 -5 -1 -5 -18z"/>
<path d="M3386 2845 c4 -8 8 -15 10 -15 2 0 4 7 4 15 0 8 -4 15 -10 15 -5 0
-7 -7 -4 -15z"/>
<path d="M4475 2840 c-3 -5 -1 -10 4 -10 6 0 11 5 11 10 0 6 -2 10 -4 10 -3 0
-8 -4 -11 -10z"/>
<path d="M4842 2820 c0 -14 2 -19 5 -12 2 6 2 18 0 25 -3 6 -5 1 -5 -13z"/>
<path d="M4208 2823 c7 -3 16 -2 19 1 4 3 -2 6 -13 5 -11 0 -14 -3 -6 -6z"/>
<path d="M4015 2810 c3 -5 8 -10 11 -10 2 0 4 5 4 10 0 6 -5 10 -11 10 -5 0
-7 -4 -4 -10z"/>
<path d="M4803 2795 c-3 -9 -3 -18 -1 -21 3 -3 8 4 11 16 6 23 -1 27 -10 5z"/>
<path d="M5891 2778 c-1 -21 4 -38 9 -38 12 0 12 27 0 55 -7 16 -9 13 -9 -17z"/>
<path d="M4031 2791 c-11 -7 -9 -12 10 -22 21 -11 22 -10 12 3 -7 8 -10 18 -6
21 9 10 1 8 -16 -2z"/>
<path d="M4474 2778 c3 -10 1 -20 -4 -23 -13 -8 -13 -35 1 -35 5 0 7 5 4 10
-4 6 -2 16 4 23 7 9 7 17 -1 27 -8 12 -9 12 -4 -2z"/>
<path d="M2113 2715 c0 -38 2 -53 4 -32 2 20 2 52 0 70 -2 17 -4 1 -4 -38z"/>
<path d="M2141 2751 c0 -25 1 -25 9 -4 7 18 16 21 49 19 22 -2 45 1 53 6 8 5
-11 8 -49 7 -61 -2 -63 -3 -62 -28z"/>
<path d="M4077 2773 c-10 -10 -8 -23 4 -23 5 0 7 5 4 10 -4 7 2 9 19 4 16 -4
26 -2 26 5 0 12 -42 15 -53 4z"/>
<path d="M4525 2770 l-30 -8 27 -1 c15 0 30 4 33 9 3 6 5 9 3 9 -2 -1 -16 -5
-33 -9z"/>
<path d="M4861 2764 c0 -11 3 -14 6 -6 3 7 2 16 -1 19 -3 4 -6 -2 -5 -13z"/>
<path d="M2907 2756 c-4 -10 -5 -21 -2 -24 9 -9 17 6 13 25 -3 17 -4 17 -11
-1z"/>
<path d="M4403 2751 c1 -14 9 -26 17 -28 10 -3 11 -2 4 4 -7 4 -14 17 -17 28
-5 16 -5 15 -4 -4z"/>
<path d="M4420 2759 c0 -5 4 -8 9 -4 5 3 12 -5 14 -17 4 -20 4 -19 6 5 1 18
-4 27 -14 27 -8 0 -15 -5 -15 -11z"/>
<path d="M5415 2760 c3 -5 8 -10 11 -10 2 0 4 5 4 10 0 6 -5 10 -11 10 -5 0
-7 -4 -4 -10z"/>
<path d="M5798 2763 c12 -2 30 -2 40 0 9 3 -1 5 -23 4 -22 0 -30 -2 -17 -4z"/>
<path d="M4146 2745 c7 -18 -7 -20 -24 -3 -6 6 -14 9 -18 6 -7 -8 74 -52 96
-53 8 -1 14 -5 13 -11 -1 -5 10 -11 23 -12 25 -2 25 -2 -5 24 -17 14 -35 23
-40 20 -17 -11 -39 5 -34 25 3 10 0 19 -6 19 -5 0 -8 -7 -5 -15z"/>
<path d="M4816 2733 c-2 -10 -6 -51 -8 -92 -3 -68 -1 -74 19 -82 20 -7 21 -6
7 19 -16 31 -17 42 -5 42 5 0 12 -12 15 -26 10 -39 19 -21 11 22 -5 27 -9 34
-15 24 -14 -23 -24 14 -16 66 6 44 2 59 -8 27z m1 -155 c-3 -8 -6 -5 -6 6 -1
11 2 17 5 13 3 -3 4 -12 1 -19z"/>
<path d="M5852 2730 c0 -14 2 -19 5 -12 2 6 2 18 0 25 -3 6 -5 1 -5 -13z"/>
<path d="M4618 2733 c7 -3 16 -2 19 1 4 3 -2 6 -13 5 -11 0 -14 -3 -6 -6z"/>
<path d="M4642 2700 c0 -14 2 -19 5 -12 2 6 2 18 0 25 -3 6 -5 1 -5 -13z"/>
<path d="M2896 2685 c-9 -26 -7 -32 5 -12 6 10 9 21 6 23 -2 3 -7 -2 -11 -11z"/>
<path d="M2152 2670 c0 -14 2 -19 5 -12 2 6 2 18 0 25 -3 6 -5 1 -5 -13z"/>
<path d="M5841 2674 c0 -11 3 -14 6 -6 3 7 2 16 -1 19 -3 4 -6 -2 -5 -13z"/>
<path d="M4498 2673 c12 -2 32 -2 45 0 12 2 2 4 -23 4 -25 0 -35 -2 -22 -4z"/>
<path d="M5410 2670 c0 -5 5 -10 10 -10 6 0 10 5 10 10 0 6 -4 10 -10 10 -5 0
-10 -4 -10 -10z"/>
<path d="M4225 2650 c3 -5 8 -10 11 -10 2 0 4 5 4 10 0 6 -5 10 -11 10 -5 0
-7 -4 -4 -10z"/>
<path d="M5232 2645 c-1 -6 -40 -9 -97 -8 -52 0 -95 -3 -95 -8 0 -10 39 -22
61 -19 35 5 99 -1 99 -9 0 -5 -27 -11 -60 -13 -33 -1 -60 0 -60 3 0 4 -11 9
-25 11 -20 4 -23 2 -15 -12 9 -17 73 -30 153 -30 42 0 50 11 44 62 -2 18 -5
29 -5 23z m-2 -50 c0 -14 -4 -25 -8 -25 -7 0 -8 31 -3 48 4 11 11 -3 11 -23z"/>
<path d="M5410 2613 c0 -24 4 -43 9 -43 15 0 18 34 4 60 -12 24 -13 24 -13
-17z"/>
<path d="M2632 2178 c6 -18 28 -21 28 -4 0 9 -7 16 -16 16 -9 0 -14 -5 -12
-12z"/>
<path d="M2931 2181 c-10 -6 -10 -10 -1 -16 13 -8 24 -1 19 14 -3 6 -10 7 -18
2z"/>
<path d="M3085 2168 c-14 -31 -68 -37 -87 -9 -13 19 -14 19 -27 -10 -18 -40
-53 -39 -74 2 -14 30 -15 30 -22 10 -7 -24 -59 -30 -72 -8 -9 16 -53 29 -53
16 0 -5 9 -9 20 -9 11 0 20 -4 20 -10 0 -5 -16 -10 -35 -10 -28 0 -35 4 -35
20 0 11 -3 20 -8 20 -4 0 -13 -9 -20 -20 -13 -22 -61 -27 -79 -9 -8 8 -13 8
-17 0 -4 -6 -17 -11 -30 -11 -22 0 -46 -17 -46 -32 0 -4 191 -8 425 -8 l424 0
-36 35 c-40 39 -48 42 -57 20 -7 -19 -60 -20 -75 -2 -6 8 -8 17 -4 20 3 4 -8
7 -25 7 -18 0 -32 -4 -32 -10 0 -5 11 -10 25 -10 14 0 25 -4 25 -10 0 -5 -18
-10 -40 -10 -36 0 -40 3 -40 25 0 31 -12 32 -25 3z"/>
<path d="M3920 2166 c0 -21 -5 -24 -45 -24 -38 -1 -45 2 -45 18 0 16 -7 20
-30 20 -16 0 -30 -4 -30 -10 0 -5 11 -10 25 -10 14 0 25 -4 25 -10 0 -5 -18
-10 -40 -10 -33 0 -40 3 -40 20 0 13 -7 20 -20 20 -13 0 -20 -7 -20 -20 0 -11
-7 -20 -15 -20 -8 0 -15 9 -15 20 0 11 -6 20 -14 20 -7 0 -16 -9 -19 -20 -4
-14 -14 -20 -35 -20 -29 0 -58 21 -45 33 3 4 1 7 -5 7 -7 0 -12 -9 -12 -20 0
-28 -30 -26 -31 3 l0 22 -9 -22 c-6 -15 -18 -23 -33 -23 -13 0 -32 -9 -42 -20
-18 -20 -17 -20 681 -21 746 0 1023 0 1065 0 23 1 26 4 21 27 -3 15 -14 29
-29 35 -32 12 -33 12 -33 -6 0 -8 -7 -15 -15 -15 -8 0 -15 7 -15 15 0 8 -4 15
-9 15 -5 0 -14 -7 -21 -15 -17 -20 -76 -19 -88 1 -8 14 -10 14 -25 0 -20 -20
-37 -21 -37 -1 0 8 -4 15 -9 15 -5 0 -16 3 -24 6 -12 4 -14 0 -10 -15 7 -26
-14 -28 -33 -3 -13 16 -13 16 -14 0 0 -27 -30 -22 -31 5 l0 22 -9 -22 c-12
-30 -60 -31 -85 -3 -19 21 -55 27 -55 10 0 -5 11 -10 25 -10 14 0 25 -4 25
-10 0 -5 -18 -10 -40 -10 -33 0 -40 3 -40 20 0 11 -3 20 -8 20 -4 0 -13 -9
-20 -20 -18 -29 -68 -27 -76 3 l-7 22 -11 -22 c-6 -13 -15 -23 -20 -23 -4 0
-8 10 -9 23 l0 22 -9 -22 c-13 -32 -80 -34 -80 -3 0 16 -7 20 -30 20 -16 0
-30 -4 -30 -10 0 -5 9 -10 19 -10 11 0 23 -4 26 -10 4 -6 -10 -10 -34 -10 -37
0 -41 2 -41 25 0 14 -4 25 -9 25 -5 0 -12 -11 -15 -25 -7 -29 -23 -32 -42 -7
-13 16 -13 16 -14 0 0 -22 -36 -24 -44 -3 -3 8 -14 15 -25 15 -10 0 -21 -7
-25 -15 -8 -22 -56 -18 -82 6 l-23 21 6 -21 c4 -15 1 -21 -10 -21 -8 0 -17 6
-20 13 -3 10 -9 10 -26 0 -30 -18 -34 -16 -29 12 3 14 1 25 -3 25 -5 0 -9 -11
-9 -24z"/>
<path d="M3025 2170 c3 -5 10 -10 16 -10 5 0 9 5 9 10 0 6 -7 10 -16 10 -8 0
-12 -4 -9 -10z"/>
<path d="M4410 2170 c0 -5 5 -10 11 -10 5 0 7 5 4 10 -3 6 -8 10 -11 10 -2 0
-4 -4 -4 -10z"/>
</g>
</svg>
